<svg xmlns="http://www.w3.org/2000/svg" id="Layer_2" viewBox="0 0 185.68 36.1"><defs><style>.cls-1{fill:#e6958f}</style></defs><g id="Layer_2-2"><g id="Layer_1-2"><path d="M70.31 19.4H43.58v-2.15h11.43v-1.81h-7.55c-.33 0-.64-.06-.93-.17s-.55-.26-.76-.46a1.9 1.9 0 0 1-.5-.68q-.18-.405-.18-.84v-4.7h23.73v2.04H48.66v2.76h20.16v2.05H58.9v1.81h11.42v2.15zm-1.34 6.13c0 .73-.32 1.4-.94 2.03-.63.63-1.49 1.18-2.57 1.65-1.08.46-2.36.84-3.83 1.11-1.46.28-3.02.41-4.68.41s-3.21-.13-4.68-.41c-1.47-.27-2.74-.65-3.83-1.11-1.09-.47-1.94-1.01-2.57-1.65-.63-.63-.94-1.3-.94-2.03s.31-1.37.94-2 1.49-1.18 2.57-1.64c1.09-.47 2.36-.84 3.83-1.11 1.47-.28 3.02-.42 4.68-.42s3.22.14 4.68.42c1.47.27 2.74.64 3.83 1.11 1.08.46 1.95 1.01 2.57 1.64.63.63.94 1.3.94 2m-12.02 3.13c1.14 0 2.21-.09 3.21-.25s1.88-.39 2.62-.69c.75-.29 1.34-.62 1.78-1.01.44-.38.66-.79.66-1.24s-.22-.84-.66-1.23-1.03-.72-1.78-1.01-1.62-.51-2.62-.68-2.07-.26-3.21-.26-2.21.09-3.22.26-1.89.4-2.64.68-1.34.62-1.77 1.01-.65.8-.65 1.23.22.86.65 1.24 1.02.72 1.77 1.01 1.63.52 2.64.69c1.01.16 2.08.25 3.22.25M82.03 8.01c1.21 0 2.34.27 3.41.83s1.99 1.32 2.79 2.28c.79.96 1.42 2.08 1.87 3.36s.68 2.65.68 4.12-.23 2.84-.68 4.13c-.46 1.3-1.08 2.42-1.87 3.38-.8.95-1.72 1.71-2.79 2.27s-2.21.84-3.41.84-2.35-.28-3.41-.84-2-1.32-2.79-2.27c-.8-.96-1.42-2.08-1.88-3.38-.46-1.29-.68-2.66-.68-4.13s.23-2.84.68-4.12c.45-1.29 1.08-2.4 1.88-3.36a9.1 9.1 0 0 1 2.79-2.28 7.25 7.25 0 0 1 3.41-.83m0 19.07c.72 0 1.4-.22 2.03-.67s1.18-1.06 1.65-1.83.85-1.66 1.12-2.69c.28-1.02.41-2.12.41-3.29s-.13-2.25-.41-3.28c-.27-1.04-.65-1.93-1.12-2.69-.48-.76-1.02-1.36-1.65-1.81s-1.31-.67-2.03-.67-1.4.22-2.03.67-1.18 1.05-1.65 1.81c-.48.76-.85 1.65-1.12 2.69-.28 1.03-.41 2.13-.41 3.28s.14 2.27.41 3.29c.27 1.03.65 1.92 1.12 2.69s1.02 1.38 1.65 1.83 1.31.67 2.03.67M93.71 8.29h3.55v7.06h3.7v2.59h-3.7v11.92h-3.55zm9.82 18.32h11.11v-3.77h3.65v3.77h11.12v2.38h-25.88zm1.09-11.91c0-.93.31-1.81.93-2.63.62-.83 1.47-1.55 2.53-2.18 1.07-.62 2.33-1.11 3.78-1.46s2.99-.53 4.62-.53 3.18.17 4.61.53c1.44.35 2.69.84 3.76 1.46 1.06.62 1.91 1.34 2.53 2.18.62.82.93 1.7.93 2.63s-.31 1.81-.93 2.64-1.47 1.56-2.53 2.18c-1.07.62-2.32 1.1-3.76 1.46-1.44.35-2.98.53-4.61.53s-3.18-.18-4.62-.53c-1.45-.36-2.71-.84-3.78-1.46s-1.91-1.34-2.53-2.18q-.93-1.245-.93-2.64m19.72 0c0-.64-.21-1.24-.62-1.81-.42-.57-.98-1.07-1.68-1.49-.71-.42-1.54-.75-2.5-.99s-1.98-.37-3.07-.37-2.11.12-3.07.37c-.97.24-1.8.57-2.51.99-.7.42-1.26.92-1.68 1.49-.41.57-.62 1.17-.62 1.81s.21 1.24.62 1.81c.42.57.98 1.07 1.68 1.49.71.42 1.54.75 2.51.99.96.24 1.99.36 3.07.36s2.11-.12 3.07-.36c.95-.24 1.78-.57 2.5-.99.7-.42 1.26-.92 1.68-1.49.41-.57.62-1.17.62-1.81m7.42 11.91h25.87v2.38h-25.87zm20.94-14.6c0 1-.36 1.94-1.07 2.84-.71.89-1.65 1.73-2.83 2.51 1 .76 2.2 1.44 3.59 2.04 1.4.6 2.81 1.07 4.24 1.4l-1.01 2.15c-.79-.1-1.62-.27-2.5-.52-.87-.24-1.73-.54-2.6-.88-.86-.35-1.7-.73-2.51-1.16-.81-.42-1.56-.86-2.25-1.33-.96.46-1.97.9-3.04 1.29-1.06.4-2.12.76-3.18 1.09s-2.1.61-3.13.86c-1.02.25-1.99.45-2.88.61l-.78-2.27c1.08-.17 2.21-.42 3.39-.77 1.17-.33 2.33-.73 3.47-1.18 1.15-.46 2.23-.95 3.27-1.48 1.03-.54 1.96-1.09 2.78-1.68a12 12 0 0 0 2.02-1.77c.53-.6.85-1.18.97-1.75h-13.44V9.79h7.44V6.35h3.65v3.44h4.34c.51 0 .91.1 1.19.3.27.2.48.42.6.66.13.24.21.46.22.67 0 .2.02.32.02.37v.23h.03Zm6.41 13.93c1.17-.42 2.33-.88 3.48-1.39q1.71-.75 3.18-1.77c.97-.67 1.83-1.44 2.57-2.3a8.3 8.3 0 0 0 1.63-2.97h-9.51v-2.17h9.9v-4.47h-9.9V8.72h11.92c.51 0 .96.18 1.33.54s.56.81.56 1.35l-.03 4.37c-.05 1.21-.29 2.33-.72 3.35a10.8 10.8 0 0 1-1.69 2.79c-.7.84-1.51 1.59-2.43 2.27s-1.89 1.29-2.92 1.82c-1.03.54-2.08 1.01-3.18 1.42-1.09.41-2.16.77-3.19 1.06l-.98-1.75zm22.9-17.65v7.06h3.67v2.59h-3.67v11.92h-3.57V8.29z" style="fill:#666464"/><path d="M18.05 2.33c-8.68 0-15.72 7.04-15.72 15.71s7.04 15.71 15.72 15.71 15.71-7.04 15.71-15.71S26.73 2.33 18.05 2.33M9.39 29.95h-.04c-3.67-4.59-5.63-10.44-5.3-16.45v-.04c2.99-4.55 7.48-8.02 12.76-9.74L9.29 17.96s-.03.12 0 .17l2.45 4.47 4.7 8.89c-2.38-.16-4.75-.66-7.03-1.54m8.48 2.68-6.02-14.58h-1.76l7.82-15.13c.05-.08.17-.08.21 0l7.82 15.13h-1.75L18.09 3.54s-.06-.03-.08 0l-6.12 14.51h1.76l4.36 13.96s.07.04.08 0l4.36-13.96h1.75l-6.02 14.58c-.05.13-.23.13-.29 0m3.68-14.58L18.1 30.64s-.08.05-.09 0l-3.47-12.59 3.47-12.59s.08-.05.09 0zm5.15 11.89h-.04c-2.28.89-4.65 1.4-7.03 1.56l4.7-8.89 2.45-4.47s.03-.12 0-.17L19.28 3.73c5.28 1.72 9.77 5.19 12.75 9.74v.04c.33 6.01-1.63 11.86-5.3 16.44" class="cls-1"/><path d="M18.05 0C8.08 0 0 8.08 0 18.05S8.08 36.1 18.05 36.1 36.1 28.02 36.1 18.05 28.01 0 18.05 0m0 34.55c-9.11 0-16.5-7.39-16.5-16.5S8.93 1.54 18.05 1.54s16.5 7.39 16.5 16.5-7.39 16.5-16.5 16.5" class="cls-1"/></g></g></svg>