<svg xmlns="http://www.w3.org/2000/svg" xml:space="preserve" width="1068.1941" height="145.45102" viewBox="0 0 1068.1941 145.45102"><defs><clipPath id="a" clipPathUnits="userSpaceOnUse"><path d="M0 807.874h1218.9V0H0Z"/></clipPath></defs><g style="stroke-width:.129931"><g style="stroke-width:.129931"><path d="m0 0-4.091-7.087h8.183Z" style="fill:#107d3c;fill-opacity:1;fill-rule:nonzero;stroke:none;stroke-width:.129931" transform="matrix(10.2619 0 0 -10.2619 41.981 72.725)"/></g><g style="stroke-width:.129931"><path d="M0 0h8.183l4.09-7.087z" style="fill:#57b43c;fill-opacity:1;fill-rule:nonzero;stroke:none;stroke-width:.129931" transform="matrix(10.2619 0 0 -10.2619 .001 0)"/></g><g style="stroke-width:.129931"><path d="m0 0 12.273-7.087-4.09-7.086z" style="fill:#21a542;fill-opacity:1;fill-rule:nonzero;stroke:none;stroke-width:.129931" transform="matrix(10.2619 0 0 -10.2619 .001 0)"/></g><g style="stroke-width:.129931"><path d="M0 0h-1.638v-3.103h7.529v1.355H0Z" style="fill:#143378;fill-opacity:1;fill-rule:nonzero;stroke:none;stroke-width:.129931" transform="matrix(10.2619 0 0 -10.2619 388.43 88.143)"/></g><g clip-path="url(#a)" style="stroke-width:.129931" transform="matrix(10.2619 0 0 -10.2619 -9642.95 5444.625)"><g style="stroke-width:.129931"><path d="M0 0v-3.308h-.818V0H-2.4l.003-5.606c-.555-.373-2.002-.746-2.98-.816v4.775h2.169v1.354h-3.817v-7.744c2.111.055 3.792.602 4.628.982L-2.4-9.19h1.582v4.358H0v-4.381h1.594V0Z" style="fill:#143378;fill-opacity:1;fill-rule:nonzero;stroke:none;stroke-width:.129931" transform="translate(991.902 528.088)"/></g><g style="stroke-width:.129931"><path d="M0 0c0 .506-.168.946-.449 1.298h.916V-.055h1.126v-.573H.467v-1.4h1.126v-1.156H3.22v6.65H1.593V1.311H.483v1.342h-2.155l-.492 1.183H-3.9l.513-1.183h-2.156V1.298h.96A2.05 2.05 0 0 1-5.035 0c0-1.366 1.074-2.243 2.512-2.243C-1.084-2.243 0-1.366 0 0m-3.501.073c0 .636.439 1.089 1.01 1.089.601 0 1.011-.453 1.011-1.089 0-.614-.41-1.077-1.011-1.077-.59 0-1.01.463-1.01 1.077" style="fill:#143378;fill-opacity:1;fill-rule:nonzero;stroke:none;stroke-width:.129931" transform="translate(980.054 524.622)"/></g><g style="stroke-width:.129931"><path d="M0 0h-1.638v-3.103h7.529v1.355H0Z" style="fill:#143378;fill-opacity:1;fill-rule:nonzero;stroke:none;stroke-width:.129931" transform="translate(977.537 521.978)"/></g><g style="stroke-width:.129931"><path d="M0 0v-3.308h-.818V0H-2.4l.003-5.606c-.555-.373-2.002-.746-2.98-.816v4.775h2.169v1.354h-3.817v-7.744c2.111.055 3.792.602 4.628.982L-2.4-9.19h1.582v4.358H0v-4.381h1.594V0Z" style="fill:#143378;fill-opacity:1;fill-rule:nonzero;stroke:none;stroke-width:.129931" transform="translate(991.902 528.088)"/></g><g style="stroke-width:.129931"><path d="M0 0c0 .506-.168.946-.449 1.298h.916V-.055h1.126v-.573H.467v-1.4h1.126v-1.156H3.22v6.65H1.593V1.311H.483v1.342h-2.155l-.492 1.183H-3.9l.513-1.183h-2.156V1.298h.96A2.05 2.05 0 0 1-5.035 0c0-1.366 1.074-2.243 2.512-2.243C-1.084-2.243 0-1.366 0 0m-3.501.073c0 .636.439 1.089 1.01 1.089.601 0 1.011-.453 1.011-1.089 0-.614-.41-1.077-1.011-1.077-.59 0-1.01.463-1.01 1.077" style="fill:#143378;fill-opacity:1;fill-rule:nonzero;stroke:none;stroke-width:.129931" transform="translate(980.054 524.622)"/></g><g style="stroke-width:.129931"><path d="M0 0h-3.293v-9.213H0c3.022 0 4.578 1.579 4.578 4.68C4.578-1.466 3.022 0 0 0m-.057-7.645h-1.172v6.078h1.172c1.793 0 2.628-.993 2.628-2.966 0-2.03-.835-3.112-2.628-3.112" style="fill:#143378;fill-opacity:1;fill-rule:nonzero;stroke:none;stroke-width:.129931" transform="translate(968.425 528.087)"/></g><g style="stroke-width:.129931"><path d="M0 0v-5.227l-.955 1.653h-2.811V0h-2.041v-9.213h2.041v3.857H0v-3.857h2.052V0Z" style="fill:#143378;fill-opacity:1;fill-rule:nonzero;stroke:none;stroke-width:.129931" transform="translate(961.332 528.087)"/></g><g style="stroke-width:.129931"><path d="M0 0h-3.293v-9.213H0c3.022 0 4.578 1.579 4.578 4.68C4.578-1.466 3.022 0 0 0m-.057-7.645h-1.172v6.078h1.172c1.793 0 2.628-.993 2.628-2.966 0-2.03-.835-3.112-2.628-3.112" style="fill:#143378;fill-opacity:1;fill-rule:nonzero;stroke:none;stroke-width:.129931" transform="translate(968.425 528.087)"/></g><g style="stroke-width:.129931"><path d="M0 0v-5.227l-.955 1.653h-2.811V0h-2.041v-9.213h2.041v3.857H0v-3.857h2.052V0Z" style="fill:#143378;fill-opacity:1;fill-rule:nonzero;stroke:none;stroke-width:.129931" transform="translate(961.332 528.087)"/></g><g style="stroke-width:.129931"><path d="M0 0c1.699 0 2.831-1.077 2.831-2.568 0-1.503-1.144-2.579-2.831-2.579s-2.819 1.076-2.819 2.579C-2.819-1.077-1.698 0 0 0m-.11-7.861h5.927v-1.357h-7.548v3.432H-.11ZM0-3.846c.767 0 1.267.538 1.267 1.278 0 .718-.5 1.256-1.267 1.256s-1.254-.561-1.254-1.256c0-.74.488-1.278 1.254-1.278M4.041-.011h1.621V-6.65H4.041Z" style="fill:#143378;fill-opacity:1;fill-rule:nonzero;stroke:none;stroke-width:.129931" transform="translate(997.87 528.086)"/></g><path d="M1005.014 521.055h9.154v-1.368h-9.154zm.669 6.796h7.827v-1.357h-7.827zm0-3.959h1.732l-.489 1.974h1.71l.433-1.974h1.332v1.974h1.655v-1.974h1.454v-1.357h-7.827z" style="fill:#143378;fill-opacity:1;fill-rule:nonzero;stroke:none;stroke-width:.129931"/><g style="stroke-width:.129931"><path d="M0 0h4.962v-4.351H1.676v-1.907c1.621-.044 3.631.337 4.553.841V.224h1.586v-3.319h1.587v-1.514H7.815v-4.374H6.229v2.165c-.901-.46-3.077-1.088-6.197-.976v4.766h3.242v1.694H0Z" style="fill:#143378;fill-opacity:1;fill-rule:nonzero;stroke:none;stroke-width:.129931" transform="translate(1015.344 527.851)"/></g><g style="stroke-width:.129931"><path d="M0 0h3.392v2.052H5V0h4.438v-1.368H0Zm.934 4.272h5.849v1.234H1.032v1.346h7.406V5.181c0-1.536-.1-2.949-.543-4.116l-1.567-.011c.211.583.322 1.2.378 1.85H.934Z" style="fill:#143378;fill-opacity:1;fill-rule:nonzero;stroke:none;stroke-width:.129931" transform="translate(1025.107 521.01)"/></g><g style="stroke-width:.129931"><path d="m0 0-1.077.011c-.311-1.323-1.432-2.209-2.975-2.209-1.81 0-3.009 1.234-3.009 2.949 0 1.705 1.188 2.938 3.009 2.938 1.587 0 2.719-.93 2.986-2.287L0 1.39v2.647h1.599v-9.196H0Zm-4.052-.807c.877 0 1.443.65 1.443 1.558 0 .875-.566 1.548-1.443 1.548-.855 0-1.399-.695-1.399-1.548 0-.908.544-1.558 1.399-1.558" style="fill:#143378;fill-opacity:1;fill-rule:nonzero;stroke:none;stroke-width:.129931" transform="translate(1042.18 524.027)"/></g></g></g></svg>