<svg xmlns="http://www.w3.org/2000/svg" xml:space="preserve" width="1092.2864" height="302.79224" viewBox="0 0 1092.2864 302.79224"><defs><clipPath id="a" clipPathUnits="userSpaceOnUse"><path d="M0 708.661h1133.858V0H0Z"/></clipPath></defs><g clip-path="url(#a)" style="stroke-width:.808968" transform="matrix(1.64819 0 0 -1.64819 -388.263 735.4)"><g style="stroke-width:.808968"><path d="M0 0c84.858 0 153.633 41.142 153.633 91.884S84.858 183.712 0 183.712c-84.842 0-153.653-41.086-153.653-91.828S-84.842 0 0 0" style="fill:#e60013;fill-opacity:1;fill-rule:nonzero;stroke:none;stroke-width:.808968" transform="translate(389.222 262.475)"/></g><g style="stroke-width:.808968"><path d="M0 0c-.874-.125-1.769 0-2.209-.461-.435-.925-.435-1.84-.881-2.798-.434-2.342.446-5.132-.434-7.908-1.314-3.25 0-6.538-.881-9.775-.433-1.903 0-3.762.881-5.615.434-.469.88-.922 1.315-.922 2.657-.469 5.272.453 7.943-.966 9.215.497 18.473-1.391 28.178.966 4.839.922 9.663 1.377 14.502-.469h1.762c.448-.497 1.329-.952 1.769-1.427 8.369-.888 15.845-.888 24.221 0 1.308 0 2.195.475 3.517.93 3.063.497 5.72-.93 8.796.497 0 1.391 1.776-1.888 1.776-.497 2.196.966 1.755 5.125.434 5.6-.937.357-1.335 2.827-1.769 3.749-.874.462-.636 1.789-.874 2.769-.434 1.91 2.209 6.097 1.308 9.802 0 .448 0 .924-.434 1.428-.874.453.434 1.838-.441 1.838-6.607 1.406-15.396 0-22.011.958-4.839.915-9.677 2.301-14.523 3.734-.44 0-.44.916-.874.916-6.614 1.405-13.216.901-19.823.901-.873-1.391-3.077-.426-3.95-1.817C18.04.467 9.229 1.433 0 0" style="fill:#fff;fill-opacity:1;fill-rule:nonzero;stroke:none;stroke-width:.808968" transform="translate(270.495 387.201)"/></g><g style="stroke-width:.808968"><path d="M0 0c-.462.47.434 1.861 0 2.323-.881.474-2.224 0-3.091-.462V.47C-3.957 0-5.299-.453-5.733-1.419c0-.929-.435-1.391-.435-2.328-1.313 0-1.761-1.392-2.216-1.392-6.153-.468-12.327-.928-18.466 0 .434.944-.475 1.392-.475 1.903-4.805 2.783-2.615 9.733-3.077 14.418-.411 0-.854 0-.854.454v3.755c10.545-.455 21.117 1.405 31.69-1.433A75.4 75.4 0 0 0 1.748 0Zm10.11 10.245c1.749 7.446 1.337 14.928.441 22.388-.441-.454-.874.434-1.322.434v.971c-3.518 1.365-7.921-.971-11.453 1.365-.427 0-.867 1.399-1.733 1.873-2.211 0-4.427.965-6.182-.93-6.6-.468-13.186.93-20.263 0-2.623 0-5.713-.468-8.365.456-1.304.474-2.185.978-3.523.978v-.978c-1.284-1.399-2.18-2.764-3.495-4.169h-.897v-.922h-.881c-.88-1.434-2.208-1.86-3.083-3.252h-.873c-.44-.518-.88-.965-.88-.965-.881-4.174 1.321-8.397-.881-12.103 0-6.07.448-12.594-.447-18.627v-2.371c-.421-4.629-1.316-9.775 0-14.453.895.504 1.328-.455 1.768-.455.881-.936 1.769-1.859 2.188-1.859 14.559-.938 29.52-1.901 44.038-.938.434 0 1.776.456 2.642.938.44.462.867.923 1.315 1.39.433 0 2.21-.467 2.657-.467.867.936 3.943.467 3.497 1.895-.427 0-3.497 1.811-3.944 1.811 0 .504-1.315 1.888-1.315 2.363.419-.475 3.078 0 3.502 0L.434-13.977c1.314.951 4.837-.474 6.165.448.427 0-2.648 0-2.648.503-.456.895-.861 2.286-.456 3.266.456.909 1.776 1.343 2.216 2.308h.888c.427.461.427.461.881.922 1.316 1.868.443 4.182.881 6.53.435 0 .868.47 1.316.925 1.314 2.781 0 6.083.433 9.32" style="fill:#fff;fill-opacity:1;fill-rule:nonzero;stroke:none;stroke-width:.808968" transform="translate(495.462 360.175)"/></g><g style="stroke-width:.808968"><path d="M0 0c-3.055-.209-6.586.721-10.558-.209-3.516-.496-6.593-1.441-9.697-1.895-1.756-2.797-5.721-2.797-8.371-3.761-1.741-.464-2.636-2.77-4.376-4.175v-.917c-.895 0-.895-1.405-1.777-1.405-.867-.496-1.328-1.427-1.762-2.314-.419-1.434 0-3.28 0-4.714 2.203 0 4.398-1.811 4.398-4.181.881 0 .881-1.392 1.776-1.392 4.391 0 8.789-.467 13.216.448 1.314 0 2.621.518 3.936-.448.462-.467.909-.467 1.343-.928.867-3.245 1.314-6.531.433-9.769 0-.937-2.195 0-3.503-.468 0 0-.469-.938-.895-.938-2.644-1.433-5.3-.965-7.923-1.433-.881-.413-2.216-.917-3.089-1.348-1.777-.973-3.518.431-5.294-.504-.433-.469-.433-1.86-1.754-1.86-.441 0-.441-.924-.441-1.407-.441 0-.874-.908-1.308-.446-1.314-3.748-1.314-7.468-1.314-11.203 1.748 0 3.51.462 4.817-.426v-1.426c.881-.945 2.195-1.404 3.517-1.868.888 0 1.328-1.887 2.65-2.775 1.335-.455 3.091.455 4.398.455 0 .433 0 .923.441.923 2.656 0 4.845.476 7.503.476 0-1.854.419-4.217-.44-5.574-.456-.951-2.218-.503-3.077-1.426-.896-1.406-.455-3.294-1.33-4.685-.9-.924-2.215-.924-3.53-1.379-.447-.468-.874-.936-1.308-.936-3.53-.922-6.629-.922-10.131-.922-.888 1.39-3.091.922-4.405.922.44-.922-.874-.46-.874-1.405h-.896c0-.916-.874-1.418-.426-2.349h-.895c-.44-.426-.867-.889-1.3-1.399-.469-.916.433-2.3 0-3.231-.469-.468-1.343-.928-1.777-1.397 0-1.889-.881-3.755-1.314-5.615 0-.462-.881-1.385-1.322-1.84-.874-1.865.881-3.719.881-5.62 1.755-.932 4.392.46 6.153-.932.455-.922.896-1.838 1.77-2.305 1.314-.933 3.076-.933 4.405-.469.448.469.874.469 1.307.936 2.195.47 4.845-.467 7.502.47 1.322.887 2.183 2.3 3.945 2.76 1.775.946 3.985.484 5.285 1.441.469.923 1.337 1.391 1.777 2.321.881.477 1.328 2.329 2.195 1.398.434-1.398.881-2.328 2.189-3.256-.434-9.323-.434-19.111-.434-28.468 3.098-1.39.434-5.117 2.65-6.488.868-1.427 2.644.896 4.384 1.371 3.979 1.888 7.489.468 11.453.902 0 1.433 0 2.825 1.322 3.3 2.195 9.804.448 19.607.867 29.383 2.209 0 4.083 2.283 6.202 1.391 2.16-.931 1.741-.463 2.16 0 2.239 1.397 3.979 2.796 6.615 2.796.867 1.88 1.329 3.697.867 5.586-.419 0-2.734-.272-2.189 0 3.532 1.867-.426 1.867 0 2.335.888.931 1.77 1.833 1.77 3.231-2.196-.461-1.337 1.908-2.196 2.33-1.322.963-3.525 0-4.419.963-.867 1.4-1.749 2.328-3.05 3.251-.461 0-.894 1.846-2.236 1.846.463 3.294-1.734 6.546 0 9.797.463 0 1.775 0 2.236.49v.937c.855-.461 1.301 1.383 2.183.924.867 0 0 1.404.867.927v.945c1.343.448.894 2.776 2.664 2.321 0 .455.867.952.433 1.42 2.636.923 3.07 3.699 3.937 6.063h.902c1.769.475 2.202 2.321 1.769 4.181-.434.455-1.769.455-1.769 1.846-.44.973-1.321 0-1.769.469-.434.504-.434.935-.889.935v.917c-.433.468-.859.978-1.307 1.433-1.768.469-3.523-.455-5.3 0-.866.469-1.721 1.406-2.615 2.301h-.879c-1.316 1.405-1.316 3.734-.896 5.629 0 .895.896.447 1.313.895 2.211.51 4.854-.448 6.609.51 1.328.448 1.768 2.768 1.328 4.65.44 0 1.314.475 1.747.475.455.426.889 1.405 1.337 1.86v.922c1.321 1.405 3.09 1.405 4.838 2.372.881.399.461 2.272.461 3.663-.461-.426-.461.931-.894.504v4.65c-1.749-.462-3.084 1.391-2.643 3.272-3.099.462-5.28 2.328-8.377 2.328 0 0-.448.931-.867.931C12.32-.705 5.72-.705 0 0" style="fill:#fff;fill-opacity:1;fill-rule:nonzero;stroke:none;stroke-width:.808968" transform="translate(408.283 412.631)"/></g><g style="stroke-width:.808968"><path d="M0 0s9.957-6.362 11.338-12.999c0 0 12.723 13.276 13.552 16.871s-3.042 29.865-2.213 36.227-1.107 15.211-7.191 17.699-17.145 3.319-17.975-4.978V34.292S0 29.591 0 26.272z" style="fill:#231916;fill-opacity:1;fill-rule:nonzero;stroke:none;stroke-width:.808968" transform="translate(698.852 380.049)"/></g><g style="stroke-width:.808968"><path d="M0 0c-4.426.553-19.911 5.532-25.166 4.702-5.256-.83-27.378.552-31.251-.277-3.871-.829-23.781 1.659-24.888-1.107C-82.411.553-85.177.553-85.177.553l-27.931 1.106s-7.466-.277-8.296-2.765c-.831-2.489 0-13.551 0-13.551s-.555-8.019 7.466-7.467c8.02.554 29.315 8.02 35.122 8.02s10.232 1.661 12.997-.276c2.766-1.936 10.508-2.488 14.381-2.766 3.872-.276 41.758.554 41.758.554s1.106-11.064-1.935-10.786c-3.042.277-.552-8.574-5.808-7.191-5.255 1.384-11.892 3.319-18.253 3.872-6.359.553-31.803-.553-38.439-.553-6.637 0-17.423 1.937-20.741.277-3.32-1.659-5.532-2.489-5.532-2.489l-21.016-.83s-.831-6.636-.831-9.125c0-2.49-3.595-3.043-1.107-4.702 2.49-1.66 1.66 1.106 3.32-4.426 1.659-5.53 2.211-12.166 2.211-12.166s-1.106-5.808 3.873-7.191c4.977-1.384 12.444-7.19 14.657-7.467s10.51-2.213 16.87-2.213 24.89 2.49 29.313 3.319c4.425.83 12.998-.829 16.594-1.106 3.595-.276 21.846-1.382 24.889-1.382s9.127 1.935 12.168 3.594c3.042 1.659-5.532 6.916-4.979 11.339.554 4.424-1.381 4.7-5.805 3.871-4.426-.83-77.711 0-77.711 0h-6.361s-7.468 1.935-8.298 4.978c-.829 3.043-2.763 4.701-.829 6.914 1.936 2.213 15.21 0 19.636 0h22.399s9.127-.277 9.127.829c0 1.107 1.381 2.489 4.425 2.213 3.042-.276 4.426-1.383 8.573-1.659s24.335 0 24.335 0 8.575-1.384 9.956.553c1.383 1.936 2.49 2.489 5.254 2.489 2.766 0 4.15 3.319 1.384 4.425-2.765 1.106 0 3.871 0 3.871S3.596-32.91.553-30.697c-3.042 2.213 0 13.275 0 13.275s4.978 1.105 4.978 5.254S4.425-.553 0 0" style="fill:#231916;fill-opacity:1;fill-rule:nonzero;stroke:none;stroke-width:.808968" transform="translate(719.87 353.5)"/></g><g style="stroke-width:.808968"><path d="M0 0c4.979 9.956 13.274 9.403 13.274 9.403l7.745.276s8.295-1.659 11.337-3.872 8.85-8.571 9.404-16.039c.553-7.468-3.598-19.357-10.787-20.741 0 0-6.361-1.383-15.209-1.383-8.851 0-15.487 5.808-18.53 11.615S-4.978-9.956 0 0m17.975-51.438s9.955-1.107 15.21 1.935c5.255 3.043 14.659 6.638 16.317 9.956 1.66 3.319 6.637 8.02 6.637 17.423S63.052 7.468 46.46 17.7s-9.128 8.572-30.144 11.891c0 0-17.975-2.488-27.101-14.104s-11.062-34.569-10.232-40.653c.829-6.084 8.295-27.654 38.992-26.272" style="fill:#231916;fill-opacity:1;fill-rule:nonzero;stroke:none;stroke-width:.808968" transform="translate(609.803 414.34)"/></g><g style="stroke-width:.808968"><path d="M0 0c1.106-2.766 3.319-3.871 8.851-3.595 5.531.276 14.655 1.937 19.357 1.107s12.443.828 16.04 1.382 15.765-.554 16.04 6.084c.276 6.637-.001 16.871-7.468 18.252s-22.124.83-24.612-3.042c0 0-3.318 3.041-8.02 3.318-4.701.278-11.615-.829-11.615-.829s-10.509 0-10.231-4.978c.277-4.978-.829-13.827-.829-13.827S-1.105 2.766 0 0" style="fill:#231916;fill-opacity:1;fill-rule:nonzero;stroke:none;stroke-width:.808968" transform="translate(758.034 413.234)"/></g><g style="stroke-width:.808968"><path d="M0 0c-8.021 3.042-8.02 12.999-7.19 16.317.829 3.319 7.466 9.872 7.466 9.872l4.425 3.126s2.579-.392 5.72.326c1.833.091 3.585.182 5.196.267 3.113-1.238 6.481-4.791 9.274-7.783 3.871-4.148 2.212-9.403.551-15.487-1.658-6.085-7.466-9.404-13.55-9.679S8.021-3.041 0 0m46.46-32.908c-3.863.367-18.373-.121-27.654-.49l.65 11.192c21.382 4.178 23.686 34.427 23.686 36.587 0 2.048-1.316 12.508-8.859 17.543 3.874.947 7.476 2.41 7.476 4.581 0 4.702 5.531 10.232.553 11.339-4.978 1.106-50.055-.278-50.055-.278l-9.679.278s-1.384-.278-1.66-3.043c-.258-2.584-4.855-14.57 5.13-15.917-2.165-2.266-5.026-6.266-4.853-11.46.277-8.297-4.702-33.738 27.102-39.547l.032-.004.106-11.643-18.391-.244s-3.872.83-5.808-.553c-1.934-1.384-4.976-5.532-4.7-8.574s.276-7.742 5.807-8.019 51.991-.553 51.991-.553 12.722-.276 12.722 3.318 2.211 14.934-3.596 15.487" style="fill:#231916;fill-opacity:1;fill-rule:nonzero;stroke:none;stroke-width:.808968" transform="translate(773.798 351.84)"/></g><g style="stroke-width:.808968"><path d="M0 0c-.276 2.489-4.425 3.594-4.425 3.594h-14.104c-4.424 0-5.256 10.51-5.256 10.51l-.109-.144.109 5.951s-5.807 14.103-11.892 14.933c-6.083.831-10.232.001-12.167-3.594 0 0-5.254-4.979-4.147-8.574 1.105-3.595 1.658-11.891 1.658-14.104s4.701-48.949 3.596-57.522c-1.107-8.572-.554-38.163 0-43.141.552-4.978-.554-28.485 3.318-30.144s5.807-4.148 9.679-6.361 5.532-.828 7.468 3.32c1.934 4.147-.554 29.866 0 36.504.552 6.637 1.383 40.376.552 42.865-.634 1.896.501 21.623 1.077 30.896 7.006-.502 19.126-1.386 20.493-1.583 1.935-.277 4.978 1.106 5.254 3.319C1.382-11.063.275-2.49 0 0" style="fill:#231916;fill-opacity:1;fill-rule:nonzero;stroke:none;stroke-width:.808968" transform="translate(897.14 403.556)"/></g></g></svg>