<svg xmlns="http://www.w3.org/2000/svg" xml:space="preserve" width="1000px" height="159.768px" x="0px" y="0px" viewBox="0 0 1000 159.768"><g fill="#727171"><path d="M568.182 81.324c28.332 0 52.017-17.505 52.017-40.589 0-24.345-23.685-40.56-52.017-40.56-28.372 0-52.087 16.215-52.087 40.56 0 23.084 23.715 40.589 52.087 40.589zm.045-64.174c16.11 0 27.282 11.102 27.282 23.584 0 12.988-11.172 23.665-27.282 23.665-16.13 0-27.327-10.677-27.327-23.665-.001-12.482 11.197-23.584 27.327-23.584zM649.716 103.713V87.578h-163.11v16.135h43.397v56.055h23.255v-56.055h29.807v56.055h23.275v-56.055z"/></g><g fill="#727171"><path d="M1000 45.848V29.773h-24.069V5.538h-25.816c1.186 4.133 2.146 9.561 2.146 16.15v64.073h23.67V45.848H1000zM865.308 96.899v16.12h85.367v46.749h24.07V96.899zM936.531 11.942h-36.582V0h-25.61c1.165 3.512 1.535 4.397 1.535 9.045v2.897h-36.782v16.12h16.479c-6.443 6.289-10.716 14.474-10.716 23.415 0 20.017 19.312 36.187 43.116 36.187 23.824 0 43.156-16.169 43.156-36.187 0-8.94-4.328-17.126-10.696-23.415h16.1v-16.12zm-48.519 59.176c-11.597 0-19.122-7.975-19.122-19.927 0-11.933 7.525-19.922 19.122-19.922 11.356 0 19.031 8.145 19.031 19.922 0 11.777-7.675 19.927-19.031 19.927z"/></g><g fill="#727171"><path d="M131.3 5.538H23.784v16.2h82.311v2.667c0 19.377-.516 28.432-1.361 37.918l-.155 1.581H0v16.095h160.278V63.904h-35.106l.53-2.187c3.462-13.047 5.528-31.223 5.598-56.179zM124.931 93.372H24.014c1.431 4.107 2.316 9.971 2.316 16.57v28.537c0 12.848 11.112 21.288 23.454 21.288h79.674V97.869c.001-2.381-2.145-4.497-4.527-4.497zm-19.352 50.24H60.717c-6.559 0-10.656-3.307-10.656-9.54v-24.596h55.519v34.136z"/></g><path fill="#727171" d="M256.276 124.451v-21.559c21.083-4.638 36.597-20.527 36.597-39.444 0-11.222-5.458-21.333-14.224-28.733h27.021v-16.14h-49.505V-.001h-26.791c1.155 3.322 1.761 6.989 1.761 12.212v6.364h-49.58v16.14h27.271c-8.79 7.4-14.233 17.511-14.233 28.733 0 18.872 15.424 34.721 36.357 39.399v21.604h-67.712v16.08h161.139v-16.08h-68.101zm-36.697-61.002c0-13.603 10.291-23.609 24.18-23.609 13.898 0 24.165 10.006 24.165 23.609 0 13.588-10.266 23.58-24.165 23.58-13.889-.001-24.18-9.992-24.18-23.58z"/><g fill="#727171"><path d="M802.129 49.665V5.538h-24.79c1.496 4.308 2.367 10.207 2.367 16.945v137.284h22.423V65.795h24.08v-16.13h-24.08zM750.508 105.174h-21.483V93.222c17.981-4.337 31.129-18.266 31.129-34.721 0-11.492-6.414-21.724-16.38-28.373h18.872V13.997h-33.621V0H703.23c1.19 3.322 1.746 7.524 1.746 12.743v1.256h-33.812v16.13h19.137c-10.021 6.649-16.42 16.88-16.42 28.373 0 16.455 13.113 30.384 31.095 34.721v11.952h-40.921v16.141h84.132c6.864 0 13.498-.641 19.432-1.571v-15.479c-5.314.552-11.118.908-17.111.908zm-52.627-46.968c0-11.987 7.534-19.977 19.116-19.977 11.447 0 19.167 8.185 19.167 19.977 0 11.782-7.72 19.952-19.167 19.952-11.582 0-19.116-7.92-19.116-19.952z"/></g><g fill="#727171"><path d="M351.079 91.486v16.079h85.557v52.203h23.87V91.486zM436.756 5.538c1.501 4.308 2.352 10.207 2.352 16.945v7.51h-23.084v16.132h23.084v34.183h22.383V5.538h-24.735z"/><path d="M436.756 5.538c1.501 4.308 2.352 10.207 2.352 16.945v7.51h-23.084v16.132h23.084v34.183h22.383V5.538h-24.735zM416.514 79.273c-5.308-47.519-27.777-77.087-65.475-73.48l-19.457 74.515h23.51l13.523-55.679c9.396.826 20.903 19.927 26.016 54.644h21.883z"/></g></svg>