<?xml version="1.0" standalone="no"?>
<!DOCTYPE svg PUBLIC "-//W3C//DTD SVG 20010904//EN"
 "http://www.w3.org/TR/2001/REC-SVG-20010904/DTD/svg10.dtd">
<svg version="1.0" xmlns="http://www.w3.org/2000/svg"
 width="1158.000000pt" height="570.000000pt" viewBox="0 0 1158.000000 570.000000"
 preserveAspectRatio="xMidYMid meet">
<g transform="translate(0.000000,570.000000) scale(0.100000,-0.100000)"
fill="#0001fc" stroke="none">
<path d="M5705 5601 c-30 -11 -155 -72 -195 -95 -19 -12 -75 -39 -125 -61 -49
-23 -128 -61 -175 -85 -47 -24 -134 -67 -195 -95 -104 -49 -242 -116 -275
-134 -36 -19 -87 -40 -105 -43 -11 -2 -20 -10 -20 -18 0 -14 36 -33 305 -166
41 -20 86 -43 100 -50 14 -8 34 -14 44 -14 11 0 78 29 150 64 411 200 508 246
524 246 9 0 64 -25 122 -55 107 -56 113 -59 164 -79 16 -6 101 -46 188 -88 87
-43 171 -78 187 -78 25 0 91 30 390 178 30 15 56 33 59 39 2 7 -18 22 -45 34
-26 12 -61 27 -78 35 -16 7 -154 73 -305 147 -731 356 -677 332 -715 318z"/>
<path d="M5545 4901 c-290 -147 -832 -411 -843 -411 -6 0 -77 -33 -159 -74
-81 -40 -157 -76 -168 -80 -11 -3 -85 -40 -165 -81 -80 -42 -158 -81 -175 -88
-16 -7 -110 -51 -207 -99 -97 -49 -180 -88 -184 -88 -4 0 -76 -33 -158 -73
-83 -41 -176 -84 -206 -98 -30 -13 -71 -33 -90 -44 -19 -11 -78 -40 -130 -65
-52 -24 -175 -83 -272 -132 -97 -48 -180 -88 -184 -88 -5 0 -76 -33 -159 -74
-82 -41 -213 -104 -290 -141 -77 -37 -221 -107 -320 -155 -305 -149 -495 -240
-505 -240 -9 0 -30 -32 -30 -44 0 -3 5 -6 11 -6 6 0 79 -33 162 -74 84 -41
186 -90 227 -109 158 -74 300 -142 440 -212 80 -39 159 -77 175 -83 17 -7 37
-16 45 -21 8 -6 78 -40 155 -77 77 -37 208 -99 290 -139 83 -40 168 -81 190
-90 53 -23 506 -243 525 -256 8 -5 22 -12 30 -15 31 -13 169 -79 315 -150 83
-41 154 -74 158 -74 8 0 187 -86 542 -260 457 -224 809 -393 855 -410 19 -8
94 -45 166 -82 72 -37 136 -68 143 -68 10 0 160 70 546 254 72 35 146 69 165
76 19 8 78 37 130 66 52 28 106 55 120 59 14 4 86 38 160 75 236 119 465 230
472 230 3 0 76 34 161 75 85 41 157 75 161 75 4 0 71 32 149 71 78 40 153 77
167 83 13 6 94 45 180 87 220 107 358 172 520 247 149 69 454 216 480 232 20
12 403 197 460 222 25 11 90 43 145 71 55 28 134 65 175 82 156 66 260 120
258 134 -3 13 -80 61 -99 61 -5 0 -31 14 -59 30 -28 17 -56 30 -62 30 -8 0
-244 115 -323 158 -11 5 -56 27 -100 47 -88 41 -89 41 -180 90 -35 19 -73 35
-83 35 -11 0 -25 7 -32 15 -7 8 -17 15 -22 15 -5 0 -58 24 -118 54 -60 30
-120 58 -132 62 -32 10 -388 183 -598 291 -35 18 -67 33 -71 33 -7 0 -202 93
-496 236 -84 41 -155 74 -160 74 -4 0 -77 34 -163 77 -198 97 -502 245 -560
273 -25 11 -52 25 -60 30 -8 5 -46 23 -85 40 -38 17 -138 65 -222 106 -83 41
-155 74 -159 74 -6 0 -187 90 -291 145 -25 14 -50 25 -55 25 -6 0 -77 34 -159
75 -81 41 -154 74 -161 73 -7 0 -89 -40 -183 -87z m-144 -1000 c54 -20 105
-64 128 -108 6 -12 12 -55 13 -95 1 -61 -2 -80 -22 -113 -35 -60 -51 -76 -95
-96 -49 -23 -81 -24 -119 -4 -15 8 -34 15 -41 15 -15 0 -76 74 -93 113 -11 26
-14 27 -69 21 -71 -7 -183 -36 -243 -62 -45 -20 -131 -79 -227 -157 -91 -73
-221 -297 -231 -396 -4 -40 1 -56 43 -130 74 -133 169 -269 235 -336 72 -75
153 -119 257 -139 41 -7 83 -18 93 -24 13 -7 549 -10 1614 -10 1564 -1 1595
-1 1601 -20 8 -26 -11 -92 -45 -160 -36 -69 -87 -103 -190 -124 -66 -14 -255
-16 -1597 -16 -944 0 -1539 4 -1565 10 -24 5 -74 16 -111 24 -80 18 -122 36
-198 85 -128 83 -181 199 -195 426 -8 121 -51 285 -75 285 -12 0 -93 -38 -110
-52 -9 -7 -19 -23 -23 -36 -4 -12 -11 -22 -15 -22 -14 0 -49 -95 -62 -167 -9
-52 -10 -126 -4 -265 10 -274 11 -259 -10 -274 -15 -11 -75 -14 -276 -14 -142
0 -264 3 -273 6 -9 3 -16 13 -16 21 0 8 59 170 130 361 72 190 130 354 130
364 0 9 13 73 29 140 15 68 36 166 46 218 9 52 21 106 26 120 5 14 14 48 19
75 5 28 12 62 16 78 6 26 5 27 -30 27 -32 0 -36 3 -36 24 0 14 5 28 10 31 6 3
35 39 64 80 46 61 62 75 103 90 26 9 63 23 81 31 18 8 40 14 48 14 16 0 85 21
154 46 91 33 116 24 100 -36 -5 -19 -14 -55 -20 -80 -7 -25 -16 -58 -21 -75
-15 -44 -39 -125 -49 -165 -5 -19 -15 -54 -21 -77 -7 -23 -10 -45 -6 -49 24
-24 174 90 337 256 210 213 372 317 565 364 45 11 191 -3 246 -23z m580 -477
c17 -8 28 -21 25 -27 -17 -39 -170 -397 -201 -472 -21 -49 -53 -122 -71 -162
-19 -40 -34 -78 -34 -86 0 -18 30 -30 137 -57 99 -24 180 -26 228 -3 30 14 35
21 35 52 1 106 48 171 124 171 34 0 50 -7 79 -32 44 -40 77 -118 69 -168 -7
-46 -48 -96 -94 -114 -90 -37 -286 -39 -520 -6 -37 6 -138 14 -224 20 -105 6
-162 14 -171 23 -11 11 -9 26 12 87 14 40 25 82 25 92 0 10 4 26 9 36 5 9 13
33 19 52 27 93 75 249 87 285 7 22 23 74 35 115 12 41 28 89 35 106 8 18 11
41 9 51 -10 36 16 42 187 46 90 1 165 4 167 5 2 1 17 -5 33 -14z m1147 -150
c48 -25 96 -54 107 -65 29 -28 7 -43 -57 -39 -173 13 -252 -12 -346 -107 -64
-64 -82 -113 -82 -218 0 -63 13 -98 54 -142 53 -58 106 -73 286 -80 88 -3 160
-9 160 -13 0 -12 -43 -37 -81 -48 -200 -60 -305 -76 -410 -63 -80 10 -128 35
-198 100 -82 78 -100 167 -67 321 53 243 231 397 459 399 87 1 91 0 175 -45z
m835 7 c75 -37 127 -76 127 -96 0 -18 -40 -26 -81 -15 -65 18 -197 -2 -255
-39 -52 -32 -111 -102 -137 -161 -30 -67 -34 -166 -9 -216 49 -96 120 -124
326 -129 82 -3 151 -7 154 -9 25 -26 -195 -102 -337 -116 -207 -22 -327 33
-402 182 -23 45 -29 71 -29 120 0 148 54 281 154 378 59 57 133 110 156 111 8
0 31 6 50 14 22 8 68 13 125 12 80 -2 98 -6 158 -36z"/>
<path d="M7005 4973 c-11 -3 -25 -9 -32 -15 -6 -5 -93 -49 -192 -99 -131 -65
-181 -95 -181 -108 0 -12 18 -25 58 -40 77 -31 199 -90 243 -117 20 -13 63
-34 96 -48 33 -13 129 -59 214 -100 86 -42 162 -76 169 -76 7 0 21 -6 29 -13
9 -7 36 -22 61 -32 25 -10 52 -24 60 -30 8 -6 67 -35 130 -63 63 -29 137 -63
164 -77 52 -27 76 -31 92 -16 9 9 112 61 319 160 l109 53 -24 19 c-14 10 -28
19 -32 19 -7 0 -142 62 -303 140 -55 26 -224 107 -375 180 -151 72 -282 135
-290 140 -8 4 -64 33 -125 63 -111 56 -153 69 -190 60z"/>
<path d="M4375 4956 c-11 -7 -31 -17 -45 -21 -14 -4 -193 -90 -398 -191 -205
-101 -375 -184 -379 -184 -4 0 -52 -22 -107 -49 -122 -60 -284 -136 -310 -145
-13 -4 -16 -10 -10 -16 6 -6 108 -59 229 -119 211 -106 219 -109 249 -96 107
46 201 91 576 273 80 38 174 82 210 97 36 15 70 31 75 36 16 12 221 113 305
149 83 35 110 55 95 69 -29 26 -421 211 -448 211 -12 0 -31 -6 -42 -14z"/>
<path d="M2922 4254 c-12 -8 -44 -23 -70 -32 -26 -10 -85 -37 -132 -62 -78
-40 -190 -94 -465 -224 -55 -26 -181 -87 -280 -135 -99 -49 -202 -98 -230
-109 -33 -14 -50 -27 -50 -38 0 -12 60 -47 217 -127 l217 -109 275 136 c152
75 277 136 280 136 2 0 73 33 158 74 84 40 194 92 243 115 50 23 104 49 120
58 81 43 145 73 159 73 8 0 18 5 21 11 8 11 -22 49 -38 49 -12 0 -342 165
-372 186 -24 17 -26 17 -53 -2z"/>
<path d="M8300 4163 c-177 -91 -233 -126 -218 -137 10 -8 217 -106 223 -106 4
0 76 -34 160 -75 83 -41 159 -75 167 -75 9 0 21 -7 28 -15 7 -8 21 -15 31 -15
10 0 20 -4 23 -9 4 -5 27 -19 54 -31 72 -33 149 -70 363 -174 108 -53 203 -96
211 -96 8 0 37 12 64 26 78 43 213 108 294 144 70 31 93 47 85 60 -2 3 -34 20
-72 38 -37 19 -75 38 -83 42 -22 13 -90 46 -135 66 -22 9 -113 52 -202 96 -89
43 -165 78 -168 78 -3 0 -68 31 -143 68 -75 38 -174 86 -220 106 -46 21 -114
55 -152 77 -38 21 -77 38 -87 38 -10 -1 -110 -49 -223 -106z"/>
<path d="M1444 3540 c-27 -10 -127 -57 -222 -104 -95 -47 -176 -86 -181 -86
-5 0 -76 -33 -157 -74 -199 -98 -612 -300 -751 -367 -72 -34 -113 -60 -113
-69 0 -15 143 -90 282 -149 26 -11 109 -50 185 -87 274 -132 421 -203 583
-282 91 -44 217 -105 281 -136 63 -31 121 -56 128 -56 8 0 66 26 130 58 64 32
148 73 186 91 100 46 120 58 120 72 0 12 -47 38 -270 144 -119 56 -277 133
-375 181 -14 7 -38 19 -55 28 -60 31 -221 105 -242 111 -40 11 -28 28 48 68
109 58 376 189 554 271 55 26 107 51 115 56 8 6 22 13 30 16 70 27 220 106
215 114 -3 5 -47 30 -98 54 -51 24 -141 68 -202 97 -60 29 -117 56 -126 60 -8
4 -38 -1 -65 -11z"/>
<path d="M9879 3512 c-53 -26 -136 -65 -185 -87 -162 -74 -192 -95 -147 -104
10 -2 87 -37 171 -77 83 -41 154 -74 157 -74 2 0 89 -41 192 -91 421 -204 447
-218 451 -242 2 -10 -5 -20 -15 -23 -22 -7 -164 -75 -418 -199 -287 -141 -485
-236 -512 -246 -12 -4 -23 -15 -23 -23 0 -12 93 -63 245 -133 17 -7 63 -31
104 -53 40 -22 80 -40 87 -40 7 0 33 9 56 21 61 30 155 77 176 88 9 5 96 48
192 94 96 47 240 116 320 155 80 38 177 84 215 102 39 18 120 57 182 86 61 30
114 54 118 54 12 0 115 51 120 61 4 5 12 9 20 9 8 0 30 9 49 21 30 18 34 24
26 40 -6 10 -15 19 -20 19 -15 0 -481 226 -515 250 -5 4 -30 15 -55 24 -25 10
-117 53 -205 96 -360 176 -666 320 -679 319 -6 0 -54 -22 -107 -47z"/>
<path d="M1891 2159 c-121 -60 -221 -113 -221 -117 0 -4 46 -30 103 -56 56
-26 179 -85 272 -131 385 -187 502 -244 540 -260 48 -21 279 -131 317 -151 43
-23 51 -21 213 63 75 39 125 63 185 91 36 16 72 37 79 46 11 13 9 17 -14 26
-53 20 -210 95 -256 121 -25 15 -57 30 -70 34 -13 4 -112 50 -219 103 -367
179 -641 312 -701 339 -3 1 -106 -47 -228 -108z"/>
<path d="M9290 2233 c-30 -14 -123 -59 -206 -99 -83 -41 -153 -74 -157 -74 -3
0 -147 -69 -319 -153 -172 -85 -338 -165 -368 -179 -134 -61 -150 -71 -150
-84 0 -17 401 -214 436 -214 13 0 78 27 143 60 66 33 124 60 130 60 6 0 54 22
108 50 54 27 143 70 198 95 55 26 127 61 160 78 96 50 369 181 473 228 34 15
62 33 62 39 0 6 -12 15 -27 21 -16 5 -114 53 -218 105 -105 52 -195 94 -200
93 -6 0 -35 -12 -65 -26z"/>
<path d="M3543 1546 c-16 -6 -112 -51 -211 -101 -135 -67 -181 -95 -181 -108
-1 -11 8 -21 22 -25 12 -3 83 -35 157 -72 156 -78 444 -218 510 -248 99 -45
312 -147 435 -208 72 -35 137 -64 146 -64 21 0 439 209 439 219 0 15 -23 28
-122 70 -54 23 -160 73 -237 111 -76 39 -143 70 -148 70 -8 0 -259 126 -278
139 -5 4 -32 16 -60 26 -43 15 -85 36 -225 111 -14 7 -47 23 -75 34 -27 11
-59 26 -69 32 -37 20 -72 25 -103 14z"/>
<path d="M7804 1524 c-38 -21 -85 -45 -104 -55 -19 -11 -38 -19 -41 -19 -4 0
-154 -72 -333 -160 -179 -88 -329 -160 -333 -160 -7 0 -61 -26 -333 -158 -30
-15 -54 -31 -52 -37 3 -12 20 -22 222 -121 85 -43 167 -84 182 -91 31 -16 13
-23 374 153 83 41 154 74 158 74 8 0 218 101 496 239 96 47 200 95 230 106 39
14 56 26 58 40 2 17 -11 27 -75 55 -43 19 -140 65 -215 102 -75 37 -143 68
-151 68 -8 0 -45 -16 -83 -36z"/>
<path d="M4960 800 c-146 -74 -286 -140 -298 -140 -16 0 -43 -30 -36 -42 3 -5
45 -28 93 -50 47 -22 150 -71 229 -109 78 -38 145 -69 148 -69 7 0 300 -142
496 -241 96 -47 143 -66 155 -61 10 4 95 45 188 91 236 115 248 121 265 130
62 33 119 60 140 66 14 4 88 38 165 75 77 38 184 89 238 114 58 27 97 51 97
60 0 9 -74 52 -192 111 -106 53 -197 101 -203 106 -19 18 -51 7 -214 -74 -308
-155 -481 -237 -497 -237 -9 0 -28 7 -42 15 -32 17 -272 132 -352 168 -30 14
-102 50 -159 81 -58 31 -109 56 -115 55 -6 0 -54 -22 -106 -49z"/>
</g>
</svg>
